<svg width="50" height="50" viewBox="0 0 50 50" fill="none" xmlns="http://www.w3.org/2000/svg">
<path d="M21.4227 0.369574C22.3201 0.263522 23.2141 0.144615 24.106 0C23.9268 0.435988 23.7046 0.86555 23.6463 1.33689C23.4913 2.43597 23.7585 3.61752 24.4942 4.48093C24.6482 4.68553 24.8472 4.86979 24.9286 5.11617C24.9968 5.46217 24.9671 5.81675 24.9704 6.16704C24.955 7.35503 24.9847 8.54301 24.9506 9.731C24.6295 9.35607 24.3744 8.9308 24.0334 8.57301C23.5573 8.07275 23.0536 7.59284 22.4828 7.19541C22.1573 6.97153 21.8362 6.74014 21.5382 6.48091C21.6998 6.1424 21.8846 5.8146 22.0506 5.47824C22.3036 4.95548 22.308 4.36417 22.2926 3.79856C22.2882 3.36043 22.1397 2.94158 21.9825 2.53773C21.7911 2.04925 21.5195 1.58541 21.1434 1.21048C20.9289 0.997309 20.698 0.800205 20.4824 0.589173C20.7881 0.491692 21.1016 0.405995 21.4227 0.369574Z" fill="#00113A"/>
<path d="M25.6984 6.10352e-05C26.8707 0.120038 28.0452 0.234661 29.1999 0.473544C28.9679 0.800267 28.6116 1.01451 28.3762 1.33802C27.8901 1.97112 27.5404 2.72418 27.4964 3.52117C27.4535 4.17676 27.4469 4.86342 27.7219 5.47723C27.8538 5.79753 28.0628 6.08354 28.1838 6.40813C28.153 6.53882 28.0034 6.58916 27.911 6.67272C26.7211 7.44721 25.6236 8.4081 24.9154 9.63465C24.8725 8.52486 24.9088 7.41401 24.8923 6.30422C24.9022 5.85752 24.856 5.4001 24.9638 4.9609C25.1848 4.51849 25.5719 4.17355 25.7699 3.71507C26.1757 2.98663 26.2603 2.12966 26.1405 1.31981C26.0569 0.861326 25.8688 0.431764 25.6984 6.10352e-05Z" fill="#000E36"/>
<path d="M10.9774 4.61698C11.0775 4.46701 11.215 4.26669 11.4272 4.30311C11.9023 4.30954 12.3785 4.32561 12.8492 4.39952C12.8965 4.62983 12.9427 4.86229 12.9888 5.09474C12.8118 5.29506 12.5677 5.4836 12.5545 5.76962C12.5226 6.07063 12.5347 6.42306 12.7777 6.64695C12.9152 6.80335 13.1395 6.81513 13.3353 6.82906C14.2568 6.8719 15.1806 6.79692 16.1 6.85584C16.9006 6.9951 17.6363 7.36788 18.3346 7.75995C19.6048 8.4766 20.6924 9.48141 21.5304 10.6533C21.8483 11.1097 22.1199 11.5939 22.3904 12.0781C22.6533 12.5451 22.7907 13.0625 22.9777 13.5596C21.7559 13.611 20.5605 13.9291 19.4267 14.364C18.9373 14.5462 18.449 14.7433 18.0036 15.0164C17.0292 15.6013 16.1055 16.3158 15.4687 17.2553C14.5494 18.5183 14.1304 20.0844 14.148 21.6227C14.1271 23.2081 14.5835 24.8235 15.5688 26.0982C16.3232 27.1116 17.3438 27.9065 18.4314 28.5578C19.7533 29.3473 21.2192 29.8604 22.6313 30.472C23.9773 31.028 25.3476 31.6772 26.333 32.7613C26.8784 33.3344 27.1061 34.1849 26.9015 34.9433C26.7201 35.6043 26.212 36.1431 25.6005 36.4613C24.6471 36.9647 23.5473 37.1083 22.4784 37.1683C19.8797 37.2165 17.2668 36.4473 15.1476 34.9744C14.8595 34.7644 14.5736 34.5523 14.2689 34.3681C14.2568 36.1185 14.2733 37.8689 14.2634 39.6192C14.2634 39.9235 14.2425 40.2309 14.2799 40.5351C14.4526 40.7044 14.6923 40.7837 14.9123 40.8822C17.1293 41.7713 19.5432 42.0916 21.9274 42.128C23.433 42.1441 24.9495 42.0884 26.4242 41.7745C27.8176 41.5507 29.1659 41.0611 30.3668 40.337C31.7854 39.4607 32.9082 38.1056 33.3987 36.532C33.7891 35.3911 33.8199 34.171 33.7561 32.9809C33.6483 31.6204 33.159 30.276 32.2946 29.1952C31.4159 28.1111 30.2634 27.2616 29.0229 26.6049C28.2245 26.1925 27.425 25.779 26.5892 25.4426C25.5675 25.0281 24.5459 24.605 23.5682 24.0983C22.8732 23.734 22.1936 23.3152 21.6591 22.7432C21.2412 22.2933 20.93 21.7105 20.963 21.0903C20.952 20.4529 21.3094 19.8637 21.7922 19.4556C22.2673 19.056 22.8501 18.7936 23.4495 18.6275C24.5921 18.3351 25.7908 18.3158 26.962 18.4229C28.4433 18.5911 29.9225 18.9328 31.2586 19.5948C31.6765 19.8005 32.0735 20.0469 32.4958 20.2472C32.5541 19.0999 32.5057 17.9505 32.5211 16.8022C32.5068 16.0212 32.5552 15.2392 32.4936 14.4605C30.9936 13.8649 29.3825 13.5917 27.7747 13.4621C26.8872 13.3625 25.992 13.4257 25.1024 13.3807C25.5642 11.6142 26.686 10.0609 28.0639 8.85046C29.5057 7.60248 31.406 6.75193 33.3635 6.83977C33.9057 6.84084 34.4489 6.81942 34.9911 6.84084C35.0065 7.10436 35.0219 7.36788 35.0428 7.63141C35.4002 7.77495 35.7015 8.01919 36.048 8.18201C36.4648 8.27949 36.898 8.21951 37.3225 8.22807C37.9483 8.20986 38.5663 8.34055 39.191 8.31163C39.4252 8.29449 39.6584 8.32342 39.8827 8.3909C39.2878 8.47232 38.6884 8.42304 38.0913 8.42625C36.6616 8.43054 35.232 8.42411 33.8023 8.42518C33.1271 8.42839 32.4441 8.37055 31.7788 8.50981C30.7803 8.72619 29.8697 9.28537 29.1746 10.0095C33.0655 10.0684 36.9574 10.032 40.8483 10.0384C41.1584 10.0524 41.4575 9.96989 41.7347 9.84027C42.7629 11.0722 43.7065 12.3737 44.4994 13.762C45.0206 14.7186 45.4363 15.7256 45.863 16.725C46.1325 17.3474 46.2875 18.0073 46.4855 18.6532C46.4899 18.6682 46.4998 18.6982 46.5042 18.7132C46.624 19.0678 46.723 19.4299 46.7846 19.7994C46.3436 19.688 45.9081 19.5488 45.4561 19.4909C43.8263 19.2478 42.0602 19.9366 41.1639 21.3088C40.6833 21.9708 40.1961 22.6328 39.6122 23.2134C39.2053 23.6184 38.6972 23.9076 38.1968 24.1893C37.9978 24.3093 37.7833 24.4207 37.636 24.6028C37.5293 24.8513 37.5381 25.1481 37.6239 25.403C37.8273 25.6012 38.1374 25.6355 38.4102 25.5926C38.9941 25.5048 39.4967 25.1716 39.9707 24.8492C40.4315 24.5385 40.8043 24.1272 41.1793 23.7276C41.3519 23.7758 41.5257 23.824 41.6995 23.8776C42.2229 24.0361 42.7123 24.3189 43.2688 24.3607C43.9495 24.4068 44.6676 24.4196 45.3022 24.14C45.8575 23.8969 46.3931 23.5884 46.8231 23.1631C47.0221 22.9638 47.2234 22.7646 47.4389 22.5793C47.5104 22.8235 47.5577 23.0752 47.5566 23.3313C47.5599 24.0126 47.6523 24.6907 47.6446 25.372C47.6402 26.4089 47.6501 27.4448 47.6226 28.4806C47.318 28.2546 47.0408 27.9975 46.7472 27.7597C46.0984 27.2669 45.311 26.9038 44.4741 26.8942C43.2633 26.8063 42.0492 27.3719 41.3255 28.3157C40.3578 28.3489 39.3889 28.3232 38.4212 28.3307C37.9274 28.3403 37.4193 28.2835 36.9398 28.4228C36.5934 28.5492 36.2327 28.8374 36.2448 29.2326C36.2481 29.3987 36.2129 29.6119 36.379 29.7211C36.5725 29.8979 36.8563 29.855 37.0993 29.855C38.0517 29.8057 39.0062 29.8422 39.9608 29.8304C40.3589 29.8347 40.7614 29.8015 41.1573 29.8657C41.4784 29.9986 41.7028 30.2782 41.9898 30.4645C43.0345 31.2016 44.4246 31.3269 45.6497 31.0109C46.3128 30.863 46.8462 30.4303 47.4103 30.0864C47.1838 30.9455 47.043 31.8229 46.8 32.6777C46.4382 34.0424 45.8696 35.344 45.2681 36.622C44.7996 37.8646 43.9506 38.9112 43.2281 40.0167C43.0213 40.3059 42.8146 40.6155 42.5012 40.804C42.1591 40.9454 41.7764 40.9101 41.4146 40.9454C41.3233 40.7355 41.2552 40.5084 41.0968 40.337C40.8747 40.1002 40.4733 40.1345 40.2335 40.3252C39.6694 40.728 39.2185 41.2561 38.6862 41.6953C37.4116 42.759 35.9787 43.6331 34.4643 44.3337C33.8441 44.5844 33.2524 44.9004 32.6168 45.1135C32.1131 45.2839 31.627 45.5045 31.1146 45.6502C30.0313 45.947 28.9349 46.2126 27.8154 46.3444C27.4437 46.3894 27.0027 46.4858 26.83 46.8521C26.7607 47.0867 26.7739 47.3449 26.852 47.5774C26.918 47.7627 27.1369 47.828 27.3172 47.8602C28.0298 47.9555 28.7172 47.6931 29.41 47.5752C29.8433 47.5034 30.2755 47.4188 30.6912 47.2785C31.3235 47.0642 31.9845 46.9389 32.608 46.699C34.1619 46.0926 35.718 45.4606 37.1246 44.5651C38.0264 43.9952 38.9314 43.421 39.7386 42.7247C40.1521 42.3744 40.5293 41.9802 40.9923 41.6878C41.1441 41.8367 41.3179 41.9684 41.441 42.1441C41.5323 42.3401 41.5191 42.578 41.4498 42.7793C41.2013 43.1404 40.823 43.3878 40.5008 43.6802C39.6771 44.4215 38.7907 45.0975 37.8559 45.7006C37.1455 46.1248 36.4285 46.5383 35.7015 46.9336C34.8438 47.4135 33.9277 47.783 33.0292 48.1837C30.6153 49.1414 28.043 49.6952 25.4455 49.8933C24.7537 49.9512 24.0587 50.0455 23.3637 49.9748C22.0253 49.8516 20.6825 49.7134 19.3673 49.4316C17.2635 49.0974 15.2609 48.3476 13.3232 47.5056C13.3089 47.4992 13.2803 47.4863 13.266 47.4799C12.8371 47.2849 12.4104 47.0846 11.9969 46.8629C11.9837 46.8564 11.9573 46.8425 11.9441 46.835C11.359 46.5351 10.7685 46.2415 10.2175 45.8838C9.63028 45.5388 9.1068 45.1039 8.53495 44.7375C7.98838 44.384 7.5001 43.9566 6.98103 43.5688C6.75888 43.3942 6.52574 43.226 6.35529 43.0022C6.18153 42.7761 6.19582 42.4558 6.32339 42.2148C6.46966 42.0413 6.64781 41.8988 6.81387 41.7456C7.60787 42.2234 8.24022 42.9058 9.00123 43.4274C10.2197 44.3562 11.5768 45.0921 12.9526 45.7756C13.7543 46.1837 14.623 46.4376 15.4654 46.7514C16.0934 46.9818 16.7378 47.1682 17.3823 47.3492C18.1807 47.5763 19.0055 47.692 19.8171 47.8623C20.1272 47.9127 20.4505 47.993 20.7628 47.9127C21.14 47.7638 21.2665 47.2871 21.1554 46.9336C21.0675 46.6315 20.7441 46.4965 20.4604 46.4237C19.6059 46.2094 18.7195 46.1505 17.8672 45.9234C16.74 45.6063 15.6139 45.2699 14.5428 44.7965C12.5479 44.0723 10.752 42.9133 9.09911 41.6224C8.7087 41.3246 8.36229 40.9797 8.00598 40.6465C7.75194 40.4173 7.45281 40.1645 7.08221 40.1956C6.6786 40.1816 6.52134 40.5994 6.32449 40.8672C6.03636 40.9208 5.70864 41.074 5.43371 40.9026C5.01692 40.6348 4.72109 40.232 4.42416 39.8496C3.61036 38.7387 2.88894 37.5571 2.33248 36.3027C1.68914 35.0355 1.17776 33.6997 0.869839 32.3167C0.86544 32.2996 0.857743 32.2664 0.853344 32.2503C0.652094 31.5797 0.600404 30.877 0.387057 30.2107C0.842344 30.4999 1.30203 30.8106 1.842 30.9316C3.10669 31.2476 4.57042 31.1983 5.64486 30.4024C5.95718 30.1914 6.21122 29.8143 6.63352 29.839C7.29555 29.8197 7.95759 29.84 8.61963 29.8304C9.39054 29.8411 10.1658 29.7822 10.9335 29.8839C11.1589 29.9032 11.4173 29.9461 11.6098 29.795C11.9386 29.5733 11.9155 29.0891 11.7132 28.7924C11.4547 28.4635 11.0258 28.29 10.6057 28.2996C9.61378 28.2996 8.62073 28.306 7.62877 28.3071C7.23177 28.3018 6.83147 28.3371 6.43666 28.2793C6.21232 28.1828 6.07485 27.9654 5.8967 27.8101C5.53489 27.4319 5.02571 27.2487 4.53963 27.0763C3.52678 26.7056 2.37977 26.907 1.4373 27.3762C0.913829 27.6226 0.50033 28.0264 0.0549399 28.3799C-0.0385371 26.4389 -0.0253392 24.4893 0.193507 22.5557C0.38376 22.7217 0.570711 22.8931 0.741169 23.0795C1.12607 23.5069 1.62975 23.8144 2.14882 24.064C2.89224 24.41 3.74343 24.4389 4.54733 24.3307C5.02461 24.2686 5.4755 24.0811 5.8934 23.854C6.06166 23.749 6.22442 23.6355 6.38828 23.5219C7.02282 24.2097 7.67716 24.9242 8.53715 25.3473C8.98914 25.5573 9.51481 25.7255 10.0141 25.5862C10.2428 25.418 10.2054 25.0881 10.1878 24.8417C10.1614 24.4518 9.75125 24.3039 9.45872 24.1304C8.3062 23.5091 7.42642 22.5182 6.66321 21.492C6.22332 20.8942 5.68115 20.3554 5.02901 19.9773C4.28229 19.5831 3.41681 19.3795 2.56672 19.4609C2.00806 19.4963 1.47029 19.6527 0.936921 19.8027C1.11068 18.8793 1.4208 17.9859 1.73532 17.1C1.74082 17.086 1.75182 17.056 1.75732 17.0421C2.18401 15.9559 2.6657 14.8836 3.27934 13.8841C3.28704 13.8713 3.30244 13.8466 3.31014 13.8338C3.74123 13.1311 4.14153 12.4091 4.64191 11.7492C5.10599 11.0775 5.66465 10.4734 6.11664 9.79314C6.47186 10.1081 6.97003 10.0117 7.40993 10.0245C11.16 10.0502 14.9101 10.0427 18.6601 10.0267C17.9849 9.15897 16.9182 8.50338 15.7701 8.53123C13.0889 8.52802 10.4067 8.52266 7.72555 8.5473C8.58444 7.62176 9.57089 6.80442 10.6563 6.14133C10.9236 5.97101 11.1798 5.73641 11.237 5.41504C11.3085 5.11724 10.9895 4.89871 10.9774 4.61698ZM9.98989 12.0352C9.60828 12.1038 9.5236 12.5933 9.65557 12.8922C9.84912 13.1429 10.2296 13.2211 10.5167 13.0861C10.8774 12.904 10.8939 12.3416 10.565 12.1209C10.4111 11.9795 10.1801 11.9924 9.98989 12.0352ZM19.6708 12.0331C19.0648 12.138 19.2111 13.0497 19.75 13.13C20.0975 13.1943 20.4252 12.859 20.3746 12.5248C20.3768 12.1937 19.9952 11.9174 19.6708 12.0331ZM28.0254 12.0116C27.5789 12.2216 27.6504 12.874 28.0276 13.1171C28.3521 13.2071 28.7908 13.0775 28.8326 12.7058C28.9459 12.2752 28.4554 11.8156 28.0254 12.0116ZM37.3577 12.0909C37.0443 12.2323 36.9761 12.6297 37.0993 12.9168C37.3236 13.2243 37.8251 13.1986 38.0726 12.935C38.2782 12.6908 38.2166 12.2741 37.9428 12.1016C37.758 12.0299 37.5414 12.0138 37.3577 12.0909ZM13.3826 12.2066C13.1703 12.2902 12.9932 12.453 12.8833 12.6469C12.7634 13.0111 12.9405 13.4642 13.3067 13.6228C13.531 13.6924 13.7697 13.6774 14.0017 13.6838C14.7374 13.6753 15.4742 13.6742 16.21 13.6817C16.4475 13.6774 16.6905 13.6892 16.9237 13.6303C17.4977 13.3732 17.4757 12.3973 16.839 12.2291C16.2001 12.0823 15.5369 12.1723 14.887 12.1509C14.3866 12.168 13.873 12.0888 13.3826 12.2066ZM31.0013 12.2634C30.6714 12.4155 30.4976 12.8065 30.5823 13.1493C30.6714 13.4374 30.9397 13.6967 31.2685 13.6785C32.1142 13.7074 32.961 13.6699 33.8078 13.6817C34.2092 13.6763 34.6986 13.6753 34.9603 13.325C35.1033 12.9029 34.9658 12.2869 34.4544 12.1916C33.8012 12.1113 33.1392 12.1798 32.4826 12.1584C31.99 12.1723 31.4753 12.1016 31.0013 12.2634ZM5.81642 14.4048C5.59537 16.0052 6.39158 17.7009 7.82232 18.5322C8.69551 19.0185 9.73255 19.056 10.7124 19.0164C10.8466 18.9992 11.017 19.0217 11.1105 18.9028C11.1842 17.9773 11.149 17.0025 10.6948 16.1626C10.2483 15.1835 9.22118 14.5783 8.17974 14.3512C7.39673 14.2334 6.59502 14.2773 5.81642 14.4048ZM38.4696 14.7154C37.5711 15.1493 37.0102 16.0373 36.743 16.9511C36.622 17.5659 36.5769 18.2022 36.6407 18.8268C36.6803 18.8546 36.7595 18.9103 36.7991 18.9382C37.2214 19.0303 37.6591 18.9928 38.0879 18.9757C39.1228 18.9532 40.1301 18.4893 40.856 17.7791C41.7314 16.905 41.9062 15.612 41.8743 14.4444C40.7548 14.1991 39.5132 14.2076 38.4696 14.7154ZM3.96228 16.6533C3.71924 16.7797 3.4322 17.0089 3.48609 17.3099C3.55427 17.567 3.81711 17.7909 4.10194 17.7545C4.52863 17.762 4.77607 17.2306 4.56273 16.8964C4.43736 16.7111 4.19432 16.544 3.96228 16.6533ZM43.4106 16.7132C43.1555 16.8279 43.0048 17.1225 43.0873 17.3892C43.2479 17.7031 43.6724 17.7834 43.9803 17.6324C44.1475 17.4535 44.2376 17.1803 44.1222 16.9543C44.0144 16.6929 43.6603 16.5943 43.4106 16.7132ZM34.4962 20.8342C34.372 20.8814 34.3214 21.0721 34.4193 21.1653C34.5974 21.2274 34.6909 20.8428 34.4962 20.8342ZM37.4875 21.1353C37.1477 21.2638 36.9772 21.6869 37.1048 22.0147C37.3159 22.44 38.0978 22.3993 38.2133 21.9205C38.3651 21.4995 37.9681 20.9392 37.4875 21.1353ZM9.65997 21.2188C9.34325 21.3688 9.35535 21.7833 9.49611 22.0479C9.65227 22.259 9.97559 22.3372 10.2219 22.2429C10.5365 22.0908 10.6057 21.6441 10.4287 21.3699C10.2703 21.1192 9.90851 21.0978 9.65997 21.2188ZM38.1495 32.712C37.9692 32.7977 37.9956 33.0237 37.9714 33.1865C37.9417 33.9621 37.9538 34.7677 38.2683 35.495C38.7654 36.6444 39.9146 37.4821 41.1793 37.6535C41.8732 37.7414 42.5781 37.7553 43.2754 37.6867C43.2127 37.1008 43.1302 36.517 43.0543 35.9321C42.9641 35.2261 42.6144 34.5856 42.2108 34.0039C41.9623 33.6493 41.6632 33.3129 41.2673 33.1105C40.6635 32.7987 39.9971 32.5631 39.3043 32.577C38.9193 32.5856 38.5092 32.5534 38.1495 32.712ZM3.0616 32.6873C2.74268 32.8245 2.67339 33.2679 2.87464 33.5272C3.10449 33.8389 3.67415 33.8132 3.8534 33.4618C3.95238 33.1962 3.88309 32.8437 3.61806 32.6948C3.4454 32.6124 3.23535 32.6102 3.0616 32.6873ZM6.02976 33.4522C5.4975 33.8989 5.10379 34.4988 4.89704 35.1522C4.62541 35.976 4.53414 36.8405 4.46155 37.6975C5.0752 37.7874 5.69765 37.7521 6.31129 37.6921C7.68595 37.5486 8.95284 36.6209 9.43892 35.3525C9.83043 34.5523 9.68746 33.6439 9.68306 32.788C9.44332 32.7152 9.20468 32.6263 8.95174 32.6145C7.9213 32.5577 6.83806 32.803 6.02976 33.4522ZM44.2904 32.6638C43.8263 32.7313 43.7461 33.3311 44.0056 33.6386C44.2926 33.855 44.8029 33.7928 44.9755 33.4586C45.0195 33.284 45.0162 33.0966 44.9624 32.9262C44.8502 32.6873 44.5368 32.5984 44.2904 32.6638ZM9.76004 38.563C9.41913 38.6766 9.34655 39.0461 9.43783 39.3493C9.60938 39.7081 10.1977 39.7756 10.4298 39.4371C10.7388 39.0354 10.278 38.2952 9.76004 38.563ZM37.4875 38.5866C37.1939 38.7248 37.1994 39.0847 37.2654 39.3504C37.4215 39.6782 37.9219 39.7199 38.1913 39.5035C38.4135 39.3525 38.4322 39.0515 38.3728 38.8169C38.2144 38.5127 37.78 38.4184 37.4875 38.5866ZM12.5116 41.3643C11.8671 41.5517 12.1476 42.6037 12.7766 42.5822C13.0834 42.4944 13.3188 42.1859 13.2792 41.871C13.2924 41.5046 12.8503 41.2229 12.5116 41.3643ZM34.692 41.465C34.6821 41.7531 34.5611 42.0873 34.7525 42.3434C34.9691 42.489 35.255 42.5319 35.5113 42.473C35.8896 42.2212 35.9061 41.4949 35.4244 41.3439C35.1726 41.2379 34.924 41.3803 34.692 41.465Z" fill="#000E36"/>
<path d="M16.896 2.66419C16.9542 2.63848 17.0708 2.58491 17.1291 2.5592C17.1269 2.96734 17.1104 3.3819 17.2116 3.78147C17.3304 4.24531 17.536 4.68344 17.7779 5.09908C16.7904 5.10872 15.8017 5.09694 14.8175 5.17085C14.7713 4.93839 14.7251 4.70594 14.6778 4.47563C14.2071 4.40171 13.7309 4.38564 13.2559 4.37922C13.6023 4.01821 14.0741 3.81897 14.5183 3.59937C15.0627 3.3487 15.6115 3.10232 16.1844 2.91378C16.1987 2.90843 16.2295 2.89771 16.2449 2.89343C16.4429 2.82487 16.643 2.75952 16.841 2.68668C16.8542 2.68132 16.8817 2.66954 16.896 2.66419Z" fill="#00133B"/>
<path d="M34.4284 2.52167C34.5824 2.57094 34.7364 2.62129 34.8914 2.67378C34.9057 2.67914 34.9365 2.68985 34.9508 2.69521C36.2628 3.20404 37.5957 3.74072 38.7229 4.58806C38.5678 4.97263 38.3457 5.39041 38.5084 5.80926C38.6558 6.03421 38.9208 6.1424 39.1485 6.27524C39.8039 6.60624 40.3527 7.09365 40.9201 7.54571C41.3105 7.87136 41.7416 8.16595 42.0232 8.59551C41.6097 8.59658 41.1962 8.61372 40.7838 8.62336C38.3919 8.60086 35.9977 8.63086 33.6069 8.58587C34.2723 8.44661 34.9552 8.50445 35.6304 8.50124C37.0601 8.50017 38.4897 8.5066 39.9194 8.50231C40.5165 8.4991 41.1159 8.54838 41.7108 8.46696C41.4865 8.39948 41.2533 8.37055 41.0191 8.38769C40.3945 8.41661 39.7764 8.28592 39.1507 8.30413C38.7262 8.29556 38.2929 8.35555 37.8761 8.25807C37.5297 8.09525 37.2283 7.85101 36.8709 7.70746C36.85 7.44394 36.8346 7.18042 36.8192 6.9169C37.0414 6.7123 37.3218 6.49591 37.3108 6.16597C37.3922 5.68499 37.0315 5.13653 36.5036 5.13653C35.6172 5.10439 34.7298 5.16759 33.8445 5.11296C33.9457 4.80659 34.0677 4.50665 34.1788 4.20456C34.3778 3.66573 34.3899 3.08727 34.4284 2.52167Z" fill="#001139"/>
<path d="M7.29541 8.9823H7.346V9.03076H7.29541V8.9823Z" fill="#6AAFC6"/>
<path d="M7.61768 9.4054H7.66815V9.45386H7.61768V9.4054Z" fill="#78BDD3"/>
<path d="M11.8183 12.1113C12.0085 12.0684 12.2395 12.0556 12.3935 12.197C12.7223 12.4177 12.7058 12.9801 12.3451 13.1622C12.058 13.2971 11.6775 13.2189 11.484 12.9683C11.352 12.6694 11.4367 12.1799 11.8183 12.1113Z" fill="#01EFFF"/>
<path d="M21.4993 12.1091C21.8237 11.9935 22.2053 12.2698 22.2031 12.6008C22.2537 12.9351 21.926 13.2703 21.5785 13.2061C21.0396 13.1257 20.8934 12.2141 21.4993 12.1091Z" fill="#00C2F8"/>
<path d="M29.8543 12.0877C30.2843 11.8917 30.7748 12.3512 30.6615 12.7819C30.6197 13.1536 30.1809 13.2832 29.8565 13.1932C29.4793 12.95 29.4078 12.2977 29.8543 12.0877Z" fill="#00D5FE"/>
<path d="M39.1863 12.167C39.37 12.0899 39.5866 12.106 39.7714 12.1777C40.0452 12.3502 40.1068 12.7669 39.9012 13.0111C39.6537 13.2747 39.1522 13.3004 38.9279 12.9929C38.8047 12.7058 38.8729 12.3084 39.1863 12.167Z" fill="#F2FEFF"/>
<path d="M7.64493 14.4808C8.42354 14.3533 9.22524 14.3094 10.0082 14.4272C11.0497 14.6543 12.0768 15.2596 12.5233 16.2387C12.9775 17.0785 13.0127 18.0533 12.939 18.9789C12.8455 19.0978 12.6751 19.0753 12.5409 19.0924C11.5611 19.132 10.524 19.0946 9.65084 18.6082C8.22009 17.7769 7.42388 16.0812 7.64493 14.4808ZM9.18455 15.7191C9.24393 16.0051 9.30992 16.2987 9.47708 16.5461C9.90047 17.2478 10.7341 17.6109 11.5336 17.7202C11.4984 17.1535 11.1267 16.6693 10.7088 16.3029C10.2898 15.9355 9.73441 15.7759 9.18455 15.7191Z" fill="#FDFFFE"/>
<path d="M40.2977 14.7914C41.3413 14.2837 42.5829 14.2751 43.7025 14.5204C43.7344 15.688 43.5595 16.981 42.6841 17.8551C41.9583 18.5654 40.9509 19.0292 39.9161 19.0517C39.4872 19.0688 39.0495 19.1063 38.6272 19.0142C38.5876 18.9864 38.5084 18.9306 38.4689 18.9028C38.4051 18.2783 38.4502 17.642 38.5711 17.0271C38.8384 16.1133 39.3992 15.2253 40.2977 14.7914ZM40.7343 16.1722C40.2746 16.5461 39.8952 17.0689 39.8798 17.672C40.6518 17.643 41.4447 17.2745 41.8384 16.6061C42.0067 16.3501 42.0628 16.048 42.1211 15.7545C41.6317 15.7663 41.1247 15.8702 40.7343 16.1722Z" fill="#FEFFFF"/>
<path d="M9.18506 15.7191C9.73492 15.7759 10.2903 15.9355 10.7093 16.3029C11.1272 16.6693 11.4989 17.1535 11.5341 17.7202C10.7346 17.6109 9.90098 17.2478 9.47759 16.5461C9.31043 16.2986 9.24444 16.0051 9.18506 15.7191Z" fill="#001643"/>
<path d="M40.7344 16.1722C41.1248 15.8701 41.6318 15.7662 42.1211 15.7545C42.0628 16.048 42.0068 16.3501 41.8385 16.6061C41.4448 17.2745 40.6519 17.643 39.8799 17.6719C39.8953 17.0688 40.2747 16.5461 40.7344 16.1722Z" fill="#001944"/>
<path d="M5.79137 16.7293C6.02341 16.62 6.26645 16.7871 6.39182 16.9724C6.60517 17.3066 6.35773 17.838 5.93103 17.8305C5.6462 17.8669 5.38337 17.643 5.31519 17.3859C5.2613 17.0849 5.54833 16.8557 5.79137 16.7293Z" fill="#00C1FB"/>
<path d="M45.239 16.7893C45.4887 16.6704 45.8428 16.769 45.9506 17.0303C46.066 17.2564 45.9759 17.5295 45.8087 17.7084C45.5008 17.8595 45.0763 17.7791 44.9157 17.4653C44.8332 17.1985 44.9839 16.9039 45.239 16.7893Z" fill="#00C8F8"/>
<path d="M2.34521 20.0223H2.39569V20.0707H2.34521V20.0223Z" fill="#84C6DB"/>
<path d="M2.12207 20.1273H2.17255V20.1757H2.12207V20.1273Z" fill="#A1D6E8"/>
<path d="M49.1816 20.1229H49.2321V20.1714H49.1816V20.1229Z" fill="#71C2DC"/>
<path d="M49.4038 20.2355H49.4543V20.2839H49.4038V20.2355Z" fill="#85C6DD"/>
<path d="M49.627 20.3436H49.6774V20.3921H49.627V20.3436Z" fill="#91D0E4"/>
<path d="M1.24219 20.5536H1.29267V20.601H1.24219V20.5536Z" fill="#8ACFE5"/>
<path d="M1.02991 20.7635H1.0794V20.812H1.02881L1.02991 20.7635Z" fill="#7CCDE7"/>
<path d="M36.3247 20.9103C36.5194 20.9188 36.4259 21.3028 36.2478 21.2408C36.1499 21.1477 36.2005 20.9573 36.3247 20.9103Z" fill="#093553"/>
<path d="M2.86426 21.2167C3.71985 20.9297 4.65902 20.7679 5.5498 20.9929C6.36799 21.2478 6.92556 21.927 7.41714 22.5751C7.42593 22.5868 7.44353 22.6104 7.45233 22.6222C7.5711 22.7786 7.68437 22.9393 7.79764 23.101C7.66897 23.025 7.53701 22.9553 7.40614 22.8857C7.49192 23.1053 7.5722 23.3271 7.67997 23.5381C7.46002 23.3506 7.25767 23.146 7.09161 22.9125C6.77379 22.9618 6.46147 23.0303 6.14695 23.0946C4.78109 23.356 3.31845 22.4765 2.86426 21.2167Z" fill="#007AC1"/>
<path d="M45.5528 21.071C46.481 20.7314 47.4631 21.012 48.3879 21.2113C48.3517 21.418 48.2945 21.628 48.146 21.7887C47.7094 22.2997 47.1815 22.7903 46.5063 22.9713C46.0521 23.0988 45.5704 23.1695 45.1009 23.0891C44.816 23.0549 44.5323 22.9649 44.2431 22.9959C43.9659 23.2198 43.7295 23.4876 43.4766 23.7372C43.5854 23.5219 43.6657 23.2916 43.6437 23.0495C43.6195 22.8535 43.8032 22.7249 43.9033 22.5792C44.3794 22.0136 44.7874 21.3002 45.5528 21.071Z" fill="#008CCB"/>
<path d="M1.1192 29.2326C1.28855 29.2369 1.23797 29.4968 1.08731 29.4882C0.916847 29.4829 0.967432 29.2219 1.1192 29.2326Z" fill="#008CCB"/>
<path d="M39.3161 21.2113C39.7967 21.0153 40.1937 21.5756 40.0419 21.9966C39.9265 22.4754 39.1446 22.5161 38.9334 22.0908C38.8059 21.763 38.9763 21.3399 39.3161 21.2113Z" fill="#00C5FD"/>
<path d="M49.9507 21.1866L50.0012 21.1877V21.2362L49.9507 21.2351V21.1866Z" fill="#83CEE3"/>
<path d="M11.4883 21.2948C11.7368 21.1738 12.0987 21.1952 12.257 21.4459C12.4341 21.7201 12.3648 22.1668 12.0503 22.3189C11.8039 22.4132 11.4806 22.335 11.3244 22.124C11.1837 21.8594 11.1716 21.4448 11.4883 21.2948Z" fill="#00CFFE"/>
<path d="M1.35986 21.5112H1.41034V21.5597H1.35986V21.5112Z" fill="#8EC9DD"/>
<path d="M1.4668 21.7309L1.51728 21.732V21.7804L1.4668 21.7794V21.7309Z" fill="#85C1D7"/>
<path d="M1.57666 21.9515H1.62714V21.9999H1.57666V21.9515Z" fill="#78B4C9"/>
<path d="M49.4038 22.2611H49.4543V22.3096H49.4038V22.2611Z" fill="#ACD9E4"/>
<path d="M7.40625 22.8856C7.53712 22.9552 7.66908 23.0249 7.79775 23.1009C7.96601 23.2413 8.08698 23.4244 8.21675 23.598C8.05289 23.7115 7.89013 23.8251 7.72187 23.9301C7.73617 23.7972 7.77026 23.6537 7.68008 23.538C7.57231 23.327 7.49203 23.1052 7.40625 22.8856Z" fill="#0C699A"/>
<path d="M43.6435 23.0496C43.6654 23.2917 43.5852 23.522 43.4763 23.7373C43.4895 23.7919 43.5148 23.899 43.528 23.9537C43.3542 23.9001 43.1805 23.8519 43.0078 23.8037C43.1805 23.523 43.385 23.2595 43.6435 23.0496Z" fill="#105F93"/>
<path d="M3.1792 29.2818C3.74226 28.533 4.7859 28.1495 5.71847 28.3541C5.77126 28.3766 5.87683 28.4238 5.93072 28.4473C6.37061 28.4805 6.74122 28.7408 7.06784 29.0097C6.95017 29.2025 6.78411 29.3579 6.57956 29.4607C6.56636 29.4682 6.53997 29.4832 6.52677 29.4907C5.49523 30.0906 4.14256 29.9331 3.1792 29.2818Z" fill="#007CBF"/>
<path d="M1.81069 29.9567C1.96355 29.9075 2.01634 29.9578 1.97015 30.1096C1.81619 30.1567 1.7634 30.1064 1.81069 29.9567Z" fill="#007CBF"/>
<path d="M5.71826 28.3545L5.80404 28.3039L5.91182 28.3524L5.93051 28.4482C5.87662 28.4245 5.77105 28.3771 5.71826 28.3545Z" fill="#20D0F1"/>
<path d="M44.6085 28.7934C44.9648 28.5899 45.3365 28.3874 45.7511 28.3296C46.6232 28.1999 47.5756 28.5213 48.1298 29.2005C47.1566 30.0617 45.5675 30.1185 44.5007 29.3826C44.4886 29.374 44.4622 29.3579 44.4501 29.3494C44.3963 29.3097 44.2896 29.2315 44.2368 29.1919C44.1609 28.9873 44.4325 28.9209 44.5568 28.8245C44.57 28.817 44.5953 28.8009 44.6085 28.7934Z" fill="#0087CA"/>
<path d="M49.5225 29.9686L49.5729 29.9696V30.0181L49.5225 30.017V29.9686Z" fill="#95CBDB"/>
<path d="M39.978 32.788C40.3376 32.6295 40.7478 32.6616 41.1327 32.6531C41.8255 32.6391 42.492 32.8748 43.0957 33.1865C43.4916 33.389 43.7907 33.7253 44.0393 34.0799C44.4429 34.6616 44.7926 35.3022 44.8828 36.0081C44.9587 36.593 45.0411 37.1768 45.1038 37.7628C44.4066 37.8314 43.7017 37.8174 43.0077 37.7296C41.7431 37.5582 40.5938 36.7205 40.0968 35.5711C39.7822 34.8437 39.7701 34.0381 39.7998 33.2626C39.824 33.0998 39.7976 32.8737 39.978 32.788ZM41.2009 34.0692C41.1261 34.7066 41.5132 35.2572 41.9124 35.721C42.3193 36.1217 42.8857 36.3573 43.4608 36.4077C43.4124 35.8657 43.2266 35.3225 42.8472 34.9144C42.415 34.4645 41.8365 34.1356 41.2009 34.0692Z" fill="#FDFFFF"/>
<path d="M7.85825 33.5284C8.66655 32.8792 9.74978 32.6339 10.7802 32.6907C11.0332 32.7024 11.2718 32.7914 11.5115 32.8642C11.5159 33.7201 11.6589 34.6285 11.2674 35.4287C10.7813 36.697 9.51444 37.6247 8.13978 37.7683C7.52613 37.8283 6.90369 37.8636 6.29004 37.7736C6.36262 36.9166 6.4539 36.0522 6.72553 35.2284C6.93228 34.5749 7.32598 33.9751 7.85825 33.5284ZM8.63796 34.8245C8.20686 35.2498 7.97702 35.8304 7.89894 36.4164C8.38392 36.3318 8.8887 36.1989 9.26261 35.869C9.78168 35.3827 10.1358 34.726 10.2095 34.0243C9.61232 34.1165 9.06685 34.4175 8.63796 34.8245Z" fill="#FDFFFF"/>
<path d="M4.89018 32.7634C5.06394 32.6863 5.27399 32.6885 5.44664 32.7709C5.71168 32.9198 5.78096 33.2723 5.68199 33.5379C5.50273 33.8893 4.93307 33.915 4.70323 33.6033C4.50198 33.344 4.57126 32.9006 4.89018 32.7634Z" fill="#FAFDFE"/>
<path d="M46.1191 32.7399C46.3655 32.6745 46.6789 32.7634 46.7911 33.0023C46.8449 33.1726 46.8482 33.3601 46.8042 33.5347C46.6316 33.8689 46.1213 33.9311 45.8343 33.7147C45.5748 33.4072 45.655 32.8073 46.1191 32.7399Z" fill="#F7FBFB"/>
<path d="M8.63794 34.8245C9.06684 34.4174 9.6123 34.1164 10.2095 34.0243C10.1358 34.7259 9.78166 35.3826 9.26259 35.8689C8.88868 36.1989 8.38391 36.3317 7.89893 36.4163C7.97701 35.8304 8.20685 35.2498 8.63794 34.8245Z" fill="#002E74"/>
<path d="M41.2007 34.0693C41.8364 34.1357 42.4148 34.4646 42.847 34.9145C43.2264 35.3226 43.4123 35.8657 43.4607 36.4078C42.8855 36.3574 42.3192 36.1217 41.9123 35.7211C41.5131 35.2573 41.126 34.7067 41.2007 34.0693Z" fill="#002758"/>
<path d="M11.5883 38.6391C12.1063 38.3713 12.5671 39.1115 12.2581 39.5132C12.026 39.8517 11.4377 39.7842 11.2661 39.4253C11.1748 39.1222 11.2474 38.7526 11.5883 38.6391Z" fill="#00A1F2"/>
<path d="M39.3163 38.6627C39.6088 38.4945 40.0432 38.5888 40.2015 38.893C40.2609 39.1276 40.2422 39.4286 40.0201 39.5796C39.7507 39.796 39.2503 39.7542 39.0941 39.4264C39.0281 39.1608 39.0226 38.8009 39.3163 38.6627Z" fill="#00B6FD"/>
<path d="M14.3404 41.4403C14.6791 41.2989 15.1212 41.5806 15.108 41.947C15.1476 42.2619 14.9123 42.5704 14.6054 42.6583C13.9764 42.6797 13.696 41.6277 14.3404 41.4403Z" fill="#00B3F3"/>
<path d="M36.5209 41.541C36.7529 41.4564 37.0015 41.3139 37.2533 41.4199C37.735 41.571 37.7185 42.2973 37.3402 42.549C37.084 42.6079 36.798 42.5651 36.5814 42.4194C36.39 42.1634 36.511 41.8291 36.5209 41.541Z" fill="#00A8F2"/>
</svg>
